<?xml version="1.0" encoding="UTF-8" standalone="no"?>
<svg width="205px" height="138px" viewBox="0 0 205 138" version="1.1" xmlns="http://www.w3.org/2000/svg" xmlns:xlink="http://www.w3.org/1999/xlink">
    <!-- Generator: Sketch 39.1 (31720) - http://www.bohemiancoding.com/sketch -->
    <title>Combined Shape</title>
    <desc>Created with Sketch.</desc>
    <defs></defs>
    <g id="Page-1" stroke="none" stroke-width="1" fill="none" fill-rule="evenodd">
        <path d="M42.088,135.42 L40.302,114.181 L25.214,114.181 L23.031,135.42 L0,135.42 L19.259,3.206 L48.639,3.206 L67.697,135.42 L42.088,135.42 Z M118.896,135.421 L116.315,126.488 C112.744,133.831 105.199,138 97.654,138 C80.383,138 69.463,125.495 69.463,108.225 L69.463,30.404 C69.463,14.72 82.567,0.824 101.425,0.824 C120.286,0.824 132.594,14.72 132.594,30.404 L132.594,52.242 L108.574,52.242 L108.574,30.007 C108.574,26.236 106.19,23.851 101.824,23.851 C97.654,23.851 95.271,26.236 95.271,30.007 L95.271,109.217 C95.271,112.989 97.853,115.767 102.023,115.767 C106.39,115.767 108.97,112.989 108.97,109.217 L108.97,87.578 L102.22,87.578 L102.22,69.71 L133.587,69.71 L133.587,135.421 L118.896,135.421 Z M172.892,138 C154.826,138 140.729,125.495 140.729,107.43 L140.729,31.199 C140.729,13.131 154.826,0.824 172.892,0.824 C190.755,0.824 204.851,13.131 204.851,31.199 L204.851,107.43 C204.851,125.495 190.755,138 172.892,138 Z M33.749,42.115 L27.993,93.533 L38.118,93.533 L33.749,42.115 Z M178.845,29.61 C178.845,26.035 176.264,23.853 172.892,23.853 C169.515,23.853 166.736,26.035 166.736,29.61 L166.736,109.018 C166.736,112.589 169.515,114.776 172.892,114.776 C176.264,114.776 178.845,112.589 178.845,109.018 L178.845,29.61 Z" id="Combined-Shape" fill="#FFFFFF"></path>
    </g>
</svg>